<svg width="81" height="18" viewBox="0 0 81 18" fill="none" xmlns="http://www.w3.org/2000/svg">
<rect width="81" height="18" fill="white"/>
<path d="M3.32 5.53C3.2 5.27667 3.14 5.03667 3.14 4.81C3.14 4.57667 3.17 4.36333 3.23 4.17C3.29 3.97 3.39 3.77667 3.53 3.59C3.67 3.39667 3.86667 3.23667 4.12 3.11C4.46667 2.93 4.88333 2.84 5.37 2.84C6.01 2.84 6.61667 3.00333 7.19 3.33C7.94333 3.75667 8.46667 4.34667 8.76 5.1C8.92667 5.51333 9.01 5.95667 9.01 6.43C9.01 7.54333 8.60667 8.44 7.8 9.12C7 9.8 5.95333 10.14 4.66 10.14C3.37333 10.14 2.32333 9.8 1.51 9.12C0.703333 8.44 0.3 7.54667 0.3 6.44C0.3 5.61333 0.533333 4.89667 1 4.29C1.47333 3.67667 2.11 3.26 2.91 3.04L2.97 3.13C2.63 3.41667 2.37333 3.83667 2.2 4.39C2.02667 4.94333 1.94 5.54 1.94 6.18C1.94 7.26 2.19 8.12 2.69 8.76C3.19 9.4 3.84333 9.72 4.65 9.72C5.46333 9.72 6.11667 9.42 6.61 8.82C7.11 8.21333 7.36 7.41333 7.36 6.42C7.36 5.82 7.26667 5.28 7.08 4.8C6.9 4.31333 6.63667 3.94 6.29 3.68C5.94333 3.41333 5.55667 3.28 5.13 3.28C4.65667 3.28 4.27333 3.40333 3.98 3.65C3.56667 4.00333 3.36 4.45333 3.36 5C3.36 5.17333 3.38333 5.35 3.43 5.53H3.32ZM14.5869 3V10H13.0869V3H14.5869ZM17.2269 9.57L17.4669 10H14.5569V9.57H17.2269ZM17.9569 7.95L17.4969 10H15.5369L15.8969 9.57C16.2302 9.57 16.5235 9.50667 16.7769 9.38C17.0302 9.24667 17.2469 9.06 17.4269 8.82C17.6069 8.57333 17.7502 8.28333 17.8569 7.95H17.9569ZM13.1169 9.27V10H12.3169V9.9C12.3169 9.9 12.3369 9.9 12.3769 9.9C12.4235 9.9 12.4469 9.9 12.4469 9.9C12.6202 9.9 12.7669 9.84 12.8869 9.72C13.0135 9.59333 13.0802 9.44333 13.0869 9.27H13.1169ZM13.1169 3.73H13.0869C13.0802 3.55667 13.0135 3.41 12.8869 3.29C12.7669 3.16333 12.6202 3.1 12.4469 3.1C12.4469 3.1 12.4235 3.1 12.3769 3.1C12.3369 3.1 12.3169 3.1 12.3169 3.1V3H13.1169V3.73ZM14.5569 3.73V3H15.3569V3.1C15.3502 3.1 15.3269 3.1 15.2869 3.1C15.2469 3.1 15.2269 3.1 15.2269 3.1C15.0535 3.1 14.9035 3.16333 14.7769 3.29C14.6569 3.41 14.5935 3.55667 14.5869 3.73H14.5569ZM28.1406 7.2V8.85C27.9806 9.05 27.7406 9.25 27.4206 9.45C27.1073 9.65 26.7306 9.81667 26.2906 9.95C25.8506 10.0767 25.3606 10.14 24.8206 10.14C24.0606 10.14 23.3973 9.99333 22.8306 9.7C22.264 9.4 21.824 8.97667 21.5106 8.43C21.1973 7.88333 21.0406 7.23667 21.0406 6.49C21.0406 5.74333 21.194 5.1 21.5006 4.56C21.814 4.02 22.2573 3.60333 22.8306 3.31C23.4106 3.01 24.094 2.86 24.8806 2.86C25.2473 2.86 25.604 2.88667 25.9506 2.94C26.2973 2.98667 26.6173 3.05 26.9106 3.13C27.204 3.21 27.4473 3.30333 27.6406 3.41L27.6606 5.12H27.5706C27.444 4.66667 27.2606 4.30667 27.0206 4.04C26.7806 3.76667 26.5006 3.57333 26.1806 3.46C25.8673 3.34 25.534 3.28 25.1806 3.28C24.6406 3.28 24.1806 3.41333 23.8006 3.68C23.4273 3.94 23.144 4.31333 22.9506 4.8C22.764 5.28667 22.6706 5.87 22.6706 6.55C22.6706 7.19 22.7573 7.75 22.9306 8.23C23.1106 8.70333 23.3706 9.07 23.7106 9.33C24.0506 9.58333 24.464 9.71333 24.9506 9.72C25.1973 9.72 25.434 9.68333 25.6606 9.61C25.894 9.53 26.0973 9.41667 26.2706 9.27C26.444 9.12333 26.5673 8.94333 26.6406 8.73L26.6506 7.2C26.6506 6.9 26.4806 6.75 26.1406 6.75H25.9806V6.65H28.7906V6.75H28.6406C28.294 6.75 28.1273 6.9 28.1406 7.2ZM34.9533 2.8L38.2233 9.94H36.4233L34.3433 4.73L34.9533 2.8ZM32.8033 9.27C32.7499 9.40333 32.7399 9.51667 32.7733 9.61C32.8066 9.70333 32.8633 9.77667 32.9433 9.83C33.0233 9.87667 33.1033 9.9 33.1833 9.9H33.2733V10H31.1333V9.9C31.1333 9.9 31.1499 9.9 31.1833 9.9C31.2099 9.9 31.2233 9.9 31.2233 9.9C31.3766 9.9 31.5333 9.85333 31.6933 9.76C31.8599 9.66 31.9966 9.49667 32.1033 9.27H32.8033ZM34.9533 2.8L34.9933 4.02L32.5133 9.97H31.7833L34.3733 4.11C34.3933 4.07 34.4266 3.99667 34.4733 3.89C34.5266 3.77667 34.5799 3.65 34.6333 3.51C34.6933 3.37 34.7466 3.23667 34.7933 3.11C34.8399 2.97667 34.8633 2.87333 34.8633 2.8H34.9533ZM36.0033 7.62V8.04H33.0633V7.62H36.0033ZM36.1533 9.27H37.9033C38.0166 9.49667 38.1533 9.66 38.3133 9.76C38.4733 9.85333 38.6299 9.9 38.7833 9.9C38.7833 9.9 38.7966 9.9 38.8233 9.9C38.8499 9.9 38.8633 9.9 38.8633 9.9V10H35.6833V9.9H35.7733C35.9066 9.9 36.0233 9.84667 36.1233 9.74C36.2233 9.62667 36.2333 9.47 36.1533 9.27ZM54.8213 11.39C55.5146 11.39 56.0746 11.2533 56.5013 10.98L56.5713 11.06C55.9979 11.8533 55.2846 12.2933 54.4313 12.38C54.2513 12.4 54.0946 12.41 53.9613 12.41C53.8346 12.41 53.6846 12.4033 53.5113 12.39C53.3446 12.3833 53.1079 12.34 52.8013 12.26C52.4946 12.18 52.2246 12.0967 51.9913 12.01C51.7579 11.93 51.4879 11.82 51.1813 11.68C50.8746 11.5467 50.6213 11.4267 50.4213 11.32C50.2213 11.22 49.9813 11.0967 49.7013 10.95C49.4279 10.81 49.1879 10.69 48.9813 10.59C48.7746 10.49 48.5746 10.4033 48.3813 10.33C47.8346 10.11 47.2746 10 46.7013 10V9.9H46.8313C47.0046 9.9 47.1513 9.84 47.2713 9.72C47.3979 9.6 47.4646 9.45 47.4713 9.27V3.73C47.4646 3.55 47.3979 3.4 47.2713 3.28C47.1513 3.16 47.0046 3.1 46.8313 3.1H46.7013V3H49.7413L49.7313 3.1H49.6313C49.3779 3.1 49.1879 3.20333 49.0613 3.41C49.0013 3.50333 48.9713 3.61 48.9713 3.73V9.53C48.9713 9.75 49.0146 9.90333 49.1013 9.99C49.1879 10.07 49.2846 10.1267 49.3913 10.16C51.8979 10.98 53.7079 11.39 54.8213 11.39ZM56.6888 2.8L59.9588 9.94H58.1588L56.0788 4.73L56.6888 2.8ZM54.5388 9.27C54.4855 9.40333 54.4755 9.51667 54.5088 9.61C54.5422 9.70333 54.5988 9.77667 54.6788 9.83C54.7588 9.87667 54.8388 9.9 54.9188 9.9H55.0088V10H52.8688V9.9C52.8688 9.9 52.8855 9.9 52.9188 9.9C52.9455 9.9 52.9588 9.9 52.9588 9.9C53.1122 9.9 53.2688 9.85333 53.4288 9.76C53.5955 9.66 53.7322 9.49667 53.8388 9.27H54.5388ZM56.6888 2.8L56.7288 4.02L54.2488 9.97H53.5188L56.1088 4.11C56.1288 4.07 56.1622 3.99667 56.2088 3.89C56.2622 3.77667 56.3155 3.65 56.3688 3.51C56.4288 3.37 56.4822 3.23667 56.5288 3.11C56.5755 2.97667 56.5988 2.87333 56.5988 2.8H56.6888ZM57.7388 7.62V8.04H54.7988V7.62H57.7388ZM57.8888 9.27H59.6388C59.7522 9.49667 59.8888 9.66 60.0488 9.76C60.2088 9.85333 60.3655 9.9 60.5188 9.9C60.5188 9.9 60.5322 9.9 60.5588 9.9C60.5855 9.9 60.5988 9.9 60.5988 9.9V10H57.4188V9.9H57.5088C57.6422 9.9 57.7588 9.84667 57.8588 9.74C57.9588 9.62667 57.9688 9.47 57.8888 9.27ZM65.1059 3V7.4C65.1059 7.87333 65.1826 8.28333 65.3359 8.63C65.4959 8.97667 65.7193 9.24333 66.0059 9.43C66.2993 9.61667 66.6459 9.71 67.0459 9.71C67.4526 9.71 67.8026 9.62333 68.0959 9.45C68.3959 9.27 68.6259 9.01667 68.7859 8.69C68.9459 8.36333 69.0259 7.97667 69.0259 7.53V3H69.7459V7.47C69.7459 8.01667 69.6293 8.49 69.3959 8.89C69.1693 9.29 68.8393 9.6 68.4059 9.82C67.9793 10.0333 67.4626 10.14 66.8559 10.14C66.1493 10.14 65.5526 10.0333 65.0659 9.82C64.5793 9.6 64.2126 9.29333 63.9659 8.9C63.7259 8.5 63.6059 8.02667 63.6059 7.48V3H65.1059ZM63.6359 3V3.6H63.6059C63.6059 3.45333 63.5526 3.33333 63.4459 3.24C63.3459 3.14667 63.2226 3.1 63.0759 3.1C63.0759 3.1 63.0493 3.1 62.9959 3.1C62.9426 3.1 62.9159 3.1 62.9159 3.1V3H63.6359ZM65.7959 3V3.1C65.7959 3.1 65.7693 3.1 65.7159 3.1C65.6626 3.1 65.6359 3.1 65.6359 3.1C65.4893 3.1 65.3626 3.14667 65.2559 3.24C65.1559 3.33333 65.1059 3.45333 65.1059 3.6H65.0859V3H65.7959ZM69.0559 3V3.6H69.0259C69.0259 3.45333 68.9726 3.33333 68.8659 3.24C68.7659 3.14667 68.6426 3.1 68.4959 3.1C68.4959 3.1 68.4693 3.1 68.4159 3.1C68.3626 3.1 68.3359 3.1 68.3359 3.1V3H69.0559ZM70.4359 3V3.1C70.4359 3.1 70.4093 3.1 70.3559 3.1C70.3026 3.1 70.2759 3.1 70.2759 3.1C70.1293 3.1 70.0026 3.14667 69.8959 3.24C69.7959 3.33333 69.7459 3.45333 69.7459 3.6H69.7259V3H70.4359ZM77.4388 3.03V10H75.9388V3.03H77.4388ZM79.8888 2.99V3.41H73.4888V2.99H79.8888ZM79.8888 3.38V4.56L79.7888 4.55V4.44C79.7888 4.12667 79.6955 3.88 79.5088 3.7C79.3288 3.51333 79.0822 3.41667 78.7688 3.41V3.38H79.8888ZM79.8888 2.81V3.1L78.6688 2.99C78.8155 2.99 78.9688 2.98 79.1288 2.96C79.2955 2.94 79.4488 2.91667 79.5888 2.89C79.7288 2.86333 79.8288 2.83667 79.8888 2.81ZM75.9688 9.27V10H75.1688V9.9C75.1688 9.9 75.1888 9.9 75.2288 9.9C75.2755 9.9 75.2988 9.9 75.2988 9.9C75.4722 9.9 75.6188 9.84 75.7388 9.72C75.8655 9.59333 75.9322 9.44333 75.9388 9.27H75.9688ZM77.4088 9.27H77.4388C77.4455 9.44333 77.5088 9.59333 77.6288 9.72C77.7555 9.84 77.9055 9.9 78.0788 9.9C78.0788 9.9 78.0988 9.9 78.1388 9.9C78.1855 9.9 78.2088 9.9 78.2088 9.9V10H77.4088V9.27ZM74.5988 3.38V3.41C74.2922 3.41667 74.0455 3.51333 73.8588 3.7C73.6788 3.88 73.5888 4.12667 73.5888 4.44V4.55L73.4888 4.56V3.38H74.5988ZM73.4888 2.81C73.5555 2.83667 73.6555 2.86333 73.7888 2.89C73.9288 2.91667 74.0822 2.94 74.2488 2.96C74.4155 2.98 74.5688 2.99 74.7088 2.99L73.4888 3.1V2.81Z" fill="url(#paint0_linear_358_24)"/>
<path d="M19.917 13.46V15.6865C19.917 15.9443 19.916 16.1006 19.9141 16.1553C19.9023 16.3584 19.8643 16.5225 19.7998 16.6475C19.6631 16.9092 19.417 17.04 19.0615 17.04C18.8721 17.04 18.7217 17.0068 18.6104 16.9404C18.4971 16.874 18.4404 16.7852 18.4404 16.6738C18.4404 16.6133 18.457 16.5635 18.4902 16.5244C18.5234 16.4854 18.5664 16.4658 18.6191 16.4658C18.7129 16.4658 18.7764 16.5225 18.8096 16.6357L18.8506 16.7764C18.8916 16.9092 18.9785 16.9756 19.1113 16.9756C19.1797 16.9756 19.2402 16.957 19.293 16.9199C19.3477 16.8848 19.3887 16.833 19.416 16.7646C19.4375 16.7139 19.4531 16.6348 19.4629 16.5273C19.4727 16.4199 19.4775 16.2764 19.4775 16.0967V14.2686C19.4775 14.0479 19.4424 13.8906 19.3721 13.7969C19.3037 13.7012 19.1875 13.6533 19.0234 13.6533V13.5801L19.917 13.46ZM19.6855 12.4141C19.6094 12.4141 19.5459 12.3896 19.4951 12.3408C19.4443 12.292 19.4189 12.2305 19.4189 12.1562C19.4189 12.084 19.4443 12.0234 19.4951 11.9746C19.5479 11.9238 19.6113 11.8984 19.6855 11.8984C19.7598 11.8984 19.8223 11.9238 19.873 11.9746C19.9238 12.0234 19.9492 12.084 19.9492 12.1562C19.9492 12.2305 19.9238 12.292 19.873 12.3408C19.8242 12.3896 19.7617 12.4141 19.6855 12.4141ZM23.1502 14.7637C23.1502 14.4473 23.2674 14.165 23.5018 13.917C23.7869 13.6162 24.1277 13.4658 24.5242 13.4658C24.9207 13.4658 25.2605 13.6162 25.5438 13.917C25.7781 14.167 25.8953 14.4502 25.8953 14.7666C25.8953 15.0791 25.784 15.3574 25.5613 15.6016C25.2879 15.9023 24.9422 16.0527 24.5242 16.0527C24.1063 16.0527 23.7596 15.9023 23.4842 15.6016C23.3768 15.4844 23.2938 15.3535 23.2352 15.209C23.1785 15.0645 23.1502 14.916 23.1502 14.7637ZM23.6834 14.7314C23.6834 15.0713 23.7596 15.3594 23.9119 15.5957C24.0838 15.8594 24.2938 15.9912 24.5418 15.9912C24.6473 15.9912 24.7498 15.9619 24.8494 15.9033C24.949 15.8447 25.035 15.7627 25.1072 15.6572C25.1834 15.5479 25.2449 15.4111 25.2918 15.2471C25.3387 15.0811 25.3621 14.9209 25.3621 14.7666C25.3621 14.6064 25.3367 14.4453 25.2859 14.2832C25.2371 14.1191 25.1707 13.9785 25.0867 13.8613C24.9266 13.6406 24.7303 13.5303 24.4979 13.5303C24.2771 13.5303 24.0867 13.6465 23.9266 13.8789C23.7645 14.1113 23.6834 14.3955 23.6834 14.7314ZM28.7682 13.5098H29.902V13.5713C29.8219 13.583 29.7643 13.5986 29.7291 13.6182C29.6529 13.6611 29.6148 13.7275 29.6148 13.8174C29.6148 13.8955 29.6549 14.0352 29.735 14.2363L30.2271 15.4932L30.6549 14.4355C30.7604 14.1719 30.8131 13.9854 30.8131 13.876C30.8131 13.7881 30.7887 13.7188 30.7398 13.668C30.691 13.6152 30.6197 13.583 30.526 13.5713V13.5098H31.3639V13.5713C31.2799 13.5947 31.2174 13.6191 31.1764 13.6445C31.1373 13.6699 31.0992 13.71 31.0621 13.7646C31.0055 13.8506 30.9156 14.043 30.7926 14.3418L29.943 16.4043C29.8414 16.6504 29.7594 16.8105 29.6969 16.8848C29.5914 17.0078 29.4576 17.0693 29.2955 17.0693C29.192 17.0693 29.108 17.0488 29.0436 17.0078C28.9811 16.9688 28.9498 16.917 28.9498 16.8525C28.9498 16.8018 28.9684 16.7607 29.0055 16.7295C29.0426 16.7002 29.0914 16.6855 29.152 16.6855C29.2027 16.6855 29.2613 16.6992 29.3277 16.7266C29.3922 16.752 29.4332 16.7676 29.4508 16.7734C29.4703 16.7793 29.4928 16.7822 29.5182 16.7822C29.6393 16.7822 29.7379 16.6914 29.8141 16.5098L29.9049 16.2871C29.9439 16.1934 29.9635 16.1211 29.9635 16.0703C29.9635 15.998 29.9264 15.8721 29.8521 15.6924L29.2428 14.2305L29.1549 14.0195C29.1021 13.8945 29.0611 13.8057 29.0318 13.7529C29.0025 13.7002 28.9732 13.6621 28.9439 13.6387C28.8951 13.6016 28.8365 13.5791 28.7682 13.5713V13.5098ZM34.682 14.4062C34.6742 14.502 34.6703 14.5713 34.6703 14.6143C34.6703 14.7842 34.6947 14.9502 34.7436 15.1123C34.7943 15.2744 34.8627 15.4092 34.9486 15.5166C35.0365 15.626 35.1449 15.7119 35.2738 15.7744C35.4047 15.8369 35.5414 15.8682 35.684 15.8682C35.7895 15.8682 35.8891 15.8506 35.9828 15.8154C36.0785 15.7803 36.1576 15.7314 36.2201 15.6689C36.2904 15.6006 36.351 15.4912 36.4018 15.3408L36.4604 15.3613C36.4096 15.5898 36.3002 15.7627 36.1322 15.8799C35.9662 15.9951 35.7445 16.0527 35.4672 16.0527C35.227 16.0527 35.0209 16.0146 34.849 15.9385C34.6771 15.8623 34.5316 15.7451 34.4125 15.5869C34.2465 15.3662 34.1635 15.0947 34.1635 14.7725C34.1635 14.333 34.3207 13.9883 34.6352 13.7383C34.8637 13.5566 35.1244 13.4658 35.4174 13.4658C35.5736 13.4658 35.7182 13.4941 35.851 13.5508C35.9838 13.6055 36.0961 13.6855 36.1879 13.791C36.3305 13.9551 36.4018 14.1602 36.4018 14.4062H34.682ZM35.9652 14.292C35.9516 14.0967 35.9154 13.9463 35.8568 13.8408C35.8041 13.7451 35.7338 13.6699 35.6459 13.6152C35.558 13.5586 35.4643 13.5303 35.3646 13.5303C35.1967 13.5303 35.0492 13.6025 34.9223 13.7471C34.7973 13.8916 34.723 14.0732 34.6996 14.292H35.9652ZM39.5031 11.9893L40.3439 11.8838V15.1533L40.3469 15.376C40.3469 15.5088 40.3547 15.6064 40.3703 15.6689C40.3859 15.7295 40.4162 15.7803 40.4611 15.8213C40.5158 15.874 40.6164 15.9141 40.7629 15.9414V16H39.4709V15.9414C39.5881 15.9258 39.6721 15.9043 39.7229 15.877C39.7736 15.8477 39.8146 15.7988 39.8459 15.7305C39.8674 15.6855 39.882 15.6182 39.8898 15.5283C39.8996 15.4365 39.9045 15.3047 39.9045 15.1328V12.833C39.9045 12.6338 39.8996 12.4932 39.8898 12.4111C39.8801 12.3291 39.8586 12.2627 39.8254 12.2119C39.7922 12.1572 39.7521 12.1182 39.7053 12.0947C39.6584 12.0713 39.591 12.0566 39.5031 12.0508V11.9893ZM43.6562 11.9893L44.4971 11.8838V15.1533L44.5 15.376C44.5 15.5088 44.5078 15.6064 44.5234 15.6689C44.5391 15.7295 44.5693 15.7803 44.6143 15.8213C44.6689 15.874 44.7695 15.9141 44.916 15.9414V16H43.624V15.9414C43.7412 15.9258 43.8252 15.9043 43.876 15.877C43.9268 15.8477 43.9678 15.7988 43.999 15.7305C44.0205 15.6855 44.0352 15.6182 44.043 15.5283C44.0527 15.4365 44.0576 15.3047 44.0576 15.1328V12.833C44.0576 12.6338 44.0527 12.4932 44.043 12.4111C44.0332 12.3291 44.0117 12.2627 43.9785 12.2119C43.9453 12.1572 43.9053 12.1182 43.8584 12.0947C43.8115 12.0713 43.7441 12.0566 43.6562 12.0508V11.9893ZM48.3953 14.4062C48.3875 14.502 48.3836 14.5713 48.3836 14.6143C48.3836 14.7842 48.408 14.9502 48.4568 15.1123C48.5076 15.2744 48.576 15.4092 48.6619 15.5166C48.7498 15.626 48.8582 15.7119 48.9871 15.7744C49.118 15.8369 49.2547 15.8682 49.3973 15.8682C49.5027 15.8682 49.6023 15.8506 49.6961 15.8154C49.7918 15.7803 49.8709 15.7314 49.9334 15.6689C50.0037 15.6006 50.0643 15.4912 50.115 15.3408L50.1736 15.3613C50.1229 15.5898 50.0135 15.7627 49.8455 15.8799C49.6795 15.9951 49.4578 16.0527 49.1805 16.0527C48.9402 16.0527 48.7342 16.0146 48.5623 15.9385C48.3904 15.8623 48.2449 15.7451 48.1258 15.5869C47.9598 15.3662 47.8768 15.0947 47.8768 14.7725C47.8768 14.333 48.034 13.9883 48.3484 13.7383C48.577 13.5566 48.8377 13.4658 49.1307 13.4658C49.2869 13.4658 49.4314 13.4941 49.5643 13.5508C49.6971 13.6055 49.8094 13.6855 49.9012 13.791C50.0438 13.9551 50.115 14.1602 50.115 14.4062H48.3953ZM49.6785 14.292C49.6648 14.0967 49.6287 13.9463 49.5701 13.8408C49.5174 13.7451 49.4471 13.6699 49.3592 13.6152C49.2713 13.5586 49.1775 13.5303 49.0779 13.5303C48.91 13.5303 48.7625 13.6025 48.6355 13.7471C48.5105 13.8916 48.4363 14.0732 48.4129 14.292H49.6785ZM54.0191 13.917C54.0895 13.7939 54.1686 13.7012 54.2564 13.6387C54.4186 13.5234 54.6031 13.4658 54.8102 13.4658C54.9371 13.4658 55.0338 13.4941 55.1002 13.5508C55.1607 13.6016 55.191 13.6641 55.191 13.7383C55.191 13.793 55.1725 13.8379 55.1354 13.873C55.1002 13.9082 55.0543 13.9258 54.9977 13.9258C54.9313 13.9258 54.8736 13.8984 54.8248 13.8438L54.734 13.7441C54.6617 13.668 54.5768 13.6299 54.4791 13.6299C54.3463 13.6299 54.2428 13.7158 54.1686 13.8877C54.0943 14.0596 54.0572 14.2988 54.0572 14.6055V15.1533L54.0602 15.376C54.0602 15.5088 54.068 15.6064 54.0836 15.6689C54.0992 15.7295 54.1295 15.7803 54.1744 15.8213C54.2291 15.874 54.3297 15.9141 54.4762 15.9414V16H53.1842V15.9414C53.3014 15.9258 53.3854 15.9043 53.4361 15.877C53.4869 15.8477 53.5279 15.7988 53.5592 15.7305C53.5807 15.6855 53.5953 15.6182 53.6031 15.5283C53.6129 15.4365 53.6178 15.3047 53.6178 15.1328V14.4092C53.6178 14.208 53.6129 14.0674 53.6031 13.9873C53.5934 13.9053 53.5719 13.8389 53.5387 13.7881C53.5055 13.7334 53.4654 13.6943 53.4186 13.6709C53.3717 13.6455 53.3043 13.6299 53.2164 13.624V13.5654L53.9693 13.46C54.0025 13.6377 54.0191 13.79 54.0191 13.917ZM57.8822 13.5098H59.016V13.5713C58.9359 13.583 58.8783 13.5986 58.8432 13.6182C58.767 13.6611 58.7289 13.7275 58.7289 13.8174C58.7289 13.8955 58.7689 14.0352 58.849 14.2363L59.3412 15.4932L59.7689 14.4355C59.8744 14.1719 59.9271 13.9854 59.9271 13.876C59.9271 13.7881 59.9027 13.7188 59.8539 13.668C59.8051 13.6152 59.7338 13.583 59.64 13.5713V13.5098H60.4779V13.5713C60.3939 13.5947 60.3314 13.6191 60.2904 13.6445C60.2514 13.6699 60.2133 13.71 60.1762 13.7646C60.1195 13.8506 60.0297 14.043 59.9066 14.3418L59.057 16.4043C58.9555 16.6504 58.8734 16.8105 58.8109 16.8848C58.7055 17.0078 58.5717 17.0693 58.4096 17.0693C58.3061 17.0693 58.2221 17.0488 58.1576 17.0078C58.0951 16.9688 58.0639 16.917 58.0639 16.8525C58.0639 16.8018 58.0824 16.7607 58.1195 16.7295C58.1566 16.7002 58.2055 16.6855 58.266 16.6855C58.3168 16.6855 58.3754 16.6992 58.4418 16.7266C58.5062 16.752 58.5473 16.7676 58.5648 16.7734C58.5844 16.7793 58.6068 16.7822 58.6322 16.7822C58.7533 16.7822 58.852 16.6914 58.9281 16.5098L59.0189 16.2871C59.058 16.1934 59.0775 16.1211 59.0775 16.0703C59.0775 15.998 59.0404 15.8721 58.9662 15.6924L58.3568 14.2305L58.2689 14.0195C58.2162 13.8945 58.1752 13.8057 58.1459 13.7529C58.1166 13.7002 58.0873 13.6621 58.058 13.6387C58.0092 13.6016 57.9506 13.5791 57.8822 13.5713V13.5098Z" fill="#734B10"/>
<defs>
<linearGradient id="paint0_linear_358_24" x1="40.5" y1="0" x2="40.5" y2="18" gradientUnits="userSpaceOnUse">
<stop offset="0.081597" stop-color="#AD7726"/>
<stop offset="1" stop-color="#422A06"/>
</linearGradient>
</defs>
</svg>
