<?xml version="1.0" encoding="UTF-8" standalone="no"?>
<svg
   width="81"
   height="18"
   viewBox="0 0 81 18"
   version="1.1"
   id="svg6"
   sodipodi:docname="rombica-logo.svg"
   inkscape:version="1.1.2 (b8e25be833, 2022-02-05)"
   xmlns:inkscape="http://www.inkscape.org/namespaces/inkscape"
   xmlns:sodipodi="http://sodipodi.sourceforge.net/DTD/sodipodi-0.dtd"
   xmlns="http://www.w3.org/2000/svg"
   xmlns:svg="http://www.w3.org/2000/svg">
  <defs
     id="defs10">
    <linearGradient
       id="paint0_linear_358_24"
       x1="40.5"
       y1="0"
       x2="40.5"
       y2="18"
       gradientUnits="userSpaceOnUse"
       gradientTransform="matrix(1.0153201,0,0,1.0330323,-0.2575383,-2.5395957)">
      <stop
         offset="0.081597"
         stop-color="#AD7726"
         id="stop8" />
      <stop
         offset="1"
         stop-color="#422A06"
         id="stop10" />
    </linearGradient>
  </defs>
  <sodipodi:namedview
     id="namedview8"
     pagecolor="#ffffff"
     bordercolor="#666666"
     borderopacity="1.0"
     inkscape:pageshadow="2"
     inkscape:pageopacity="0.0"
     inkscape:pagecheckerboard="0"
     showgrid="false"
     inkscape:zoom="19"
     inkscape:cx="40.473684"
     inkscape:cy="9"
     inkscape:window-width="2560"
     inkscape:window-height="1494"
     inkscape:window-x="-11"
     inkscape:window-y="-11"
     inkscape:window-maximized="1"
     inkscape:current-layer="svg6" />
  <path
     d="M 3.1133246,3.1730728 C 2.9914861,2.9113747 2.930567,2.663447 2.930567,2.4292895 2.930567,2.1882521 2.961026,1.967865 3.021945,1.7681489 3.082864,1.5615424 3.1843963,1.3618263 3.3265411,1.1689901 3.4686859,0.96927401 3.6683689,0.80398884 3.9255799,0.67313464 4.277561,0.48718883 4.7006042,0.39421602 5.1947301,0.39421602 c 0.6498049,0 1.2657691,0.16872507 1.8478827,0.50618573 C 7.8074839,1.3411656 8.338842,1.9506547 8.636665,2.7288689 c 0.169224,0.4269832 0.25383,0.8849678 0.25383,1.373933 0,1.1501058 -0.409509,2.0763949 -1.2285369,2.7788569 -0.8122562,0.7024619 -1.8749613,1.0536929 -3.1881053,1.0536929 -1.3063819,0 -2.3724681,-0.351231 -3.1982584,-1.0536929 C 0.4565692,6.1791968 0.047057,5.256358 0.047057,4.1131322 0.047057,3.2591554 0.2839647,2.5188224 0.7577812,1.8921127 1.2383629,1.258523 1.8847868,0.82808949 2.6970429,0.60082238 l 0.060919,0.0929729 C 2.4127531,0.98993466 2.1521509,1.4238082 1.9761654,1.995416 1.8001799,2.5670237 1.7121821,3.1834031 1.7121821,3.8445438 c 0,1.1156749 0.2538301,2.0040827 0.7614901,2.6652233 0.5076601,0.6611407 1.1709992,0.991711 1.9900275,0.991711 0.8257904,0 1.4891395,-0.3099096 1.9900275,-0.929729 0.50766,-0.6267097 0.7614901,-1.4531356 0.7614901,-2.4792776 0,-0.6198193 -0.09476,-1.1776568 -0.2842897,-1.6735123 C 6.74817,1.9162134 6.4808058,1.5305514 6.1288247,1.261963 5.7768443,0.98648433 5.3842606,0.84875013 4.951054,0.84875013 c -0.4805814,0 -0.8697943,0.12740388 -1.1676182,0.38222197 -0.4196623,0.3650013 -0.6294985,0.8298658 -0.6294985,1.3945936 0,0.1790555 0.023687,0.3615613 0.071073,0.5475071 z M 14.552835,0.55950109 V 7.7907272 h -1.52298 V 0.55950109 Z M 17.23328,7.3465233 17.476957,7.7907272 H 14.522375 V 7.3465233 Z M 17.974464,5.673011 17.507416,7.7907272 h -1.990027 l 0.365515,-0.4442039 c 0.338406,0 0.6362,-0.065422 0.893482,-0.1962761 0.257181,-0.1377342 0.4772,-0.3305704 0.659958,-0.5784981 0.182758,-0.2548181 0.328252,-0.5543975 0.436587,-0.8987381 z m -4.91415,1.3636026 V 7.7907272 H 12.248058 V 7.687424 c 0,0 0.0203,0 0.06092,0 0.04732,0 0.07108,0 0.07108,0 0.175955,0 0.324902,-0.061982 0.44674,-0.1859459 0.12854,-0.1308542 0.196262,-0.285809 0.203065,-0.4648645 z m 0,-5.722999 h -0.03046 c -0.0068,-0.1790555 -0.07452,-0.33057027 -0.203065,-0.45453414 -0.121838,-0.13085421 -0.270785,-0.19627614 -0.44674,-0.19627614 0,0 -0.02376,0 -0.07108,0 -0.04062,0 -0.06092,0 -0.06092,0 V 0.55950109 h 0.812256 z m 1.462061,0 V 0.55950109 h 0.812256 v 0.10330323 c -0.0068,0 -0.03046,0 -0.07107,0 -0.04062,0 -0.06092,0 -0.06092,0 -0.176056,0 -0.328354,0.0654219 -0.456893,0.19627614 -0.121839,0.12396387 -0.18621,0.27547864 -0.192911,0.45453414 z M 28.31418,4.8982367 V 6.60274 c -0.162452,0.2066065 -0.406129,0.413213 -0.731031,0.6198194 -0.3181,0.2066065 -0.700571,0.378782 -1.147312,0.5165162 -0.446741,0.1308852 -0.944248,0.1962761 -1.492521,0.1962761 -0.771643,0 -1.445105,-0.1515148 -2.020487,-0.4545342 -0.57528,-0.3099097 -1.022021,-0.7472233 -1.340222,-1.311951 -0.3181,-0.5647278 -0.4772,-1.2327485 -0.4772,-2.0040827 0,-0.7713342 0.155749,-1.4359149 0.467047,-1.9937523 0.318201,-0.5578375 0.768293,-0.9882711 1.350375,-1.2912904 0.588886,-0.30990969 1.282756,-0.46486443 2.081406,-0.46486443 0.372319,0 0.734483,0.027551 1.086393,0.0826426 0.352012,0.0482116 0.676914,0.11363356 0.974708,0.19627614 0.297894,0.0826426 0.544922,0.17905549 0.741183,0.28924905 l 0.0203,1.76648514 h -0.09138 C 27.6069,2.2812251 27.420691,1.9093335 27.177014,1.6338548 26.933337,1.351496 26.649047,1.1517696 26.324145,1.034696 c -0.3181,-0.12396383 -0.656507,-0.18594576 -1.01532,-0.18594576 -0.548274,0 -1.015321,0.13773419 -1.401142,0.41321286 -0.379019,0.2685884 -0.66666,0.6542504 -0.863022,1.1569962 -0.189459,0.5027458 -0.28429,1.1053446 -0.28429,1.8078065 0,0.6611407 0.08803,1.2396388 0.263983,1.7354943 0.182758,0.4889652 0.446741,0.8677471 0.79195,1.1363355 0.345209,0.2616981 0.764943,0.3959923 1.258997,0.4028826 0.250479,0 0.490806,-0.037881 0.720877,-0.1136335 0.236976,-0.082643 0.44339,-0.1997161 0.619345,-0.351231 0.176057,-0.1515148 0.301246,-0.3374607 0.375669,-0.5578374 l 0.01016,-1.5805395 c 0,-0.3099097 -0.172604,-0.4648645 -0.517813,-0.4648645 H 26.121087 V 4.3300691 h 2.85305 V 4.4333723 H 28.82184 c -0.35191,0 -0.521164,0.1549548 -0.507659,0.4648644 z M 35.23125,0.35289473 38.551347,7.7287453 H 36.723771 L 34.611906,2.3466469 Z M 33.048312,7.0366136 c -0.05422,0.1377342 -0.06437,0.2548181 -0.03046,0.351231 0.03381,0.096413 0.09138,0.1721755 0.172605,0.2272671 0.08122,0.048212 0.162452,0.072312 0.243677,0.072312 h 0.09138 V 7.7907272 H 31.352728 V 7.687424 c 0,0 0.01686,0 0.05076,0 0.027,0 0.04062,0 0.04062,0 0.155649,0 0.314749,-0.048212 0.4772,-0.1446246 0.169153,-0.1033032 0.307947,-0.2720284 0.416281,-0.5061858 z M 35.23125,0.35289473 35.27187,1.613194 32.753876,7.7597362 H 32.01269 l 2.629679,-6.0535693 c 0.0203,-0.041321 0.05412,-0.1170735 0.101532,-0.2272671 0.05412,-0.1170735 0.108233,-0.2479277 0.162452,-0.3925523 0.06092,-0.14462446 0.115035,-0.28235866 0.16245,-0.41321286 0.04732,-0.1377342 0.07108,-0.24448775 0.07108,-0.32023991 z M 36.297336,5.3321103 V 5.7659839 H 33.312295 V 5.3321103 Z m 0.152299,1.7045033 h 1.77681 c 0.115036,0.2341574 0.25383,0.4028826 0.416281,0.5061858 0.162451,0.096413 0.321451,0.1446246 0.477201,0.1446246 0,0 0.0135,0 0.04062,0 0.027,0 0.04062,0 0.04062,0 V 7.7907272 H 35.97244 V 7.687424 h 0.09138 c 0.135342,0 0.25383,-0.055092 0.355362,-0.1652852 0.101533,-0.1170736 0.111685,-0.2789187 0.03046,-0.4855252 z m 18.953996,2.1900285 c 0.703921,0 1.272501,-0.1412155 1.705738,-0.4235433 l 0.07107,0.082643 c -0.582185,0.8195046 -1.306412,1.2740382 -2.172784,1.3636022 -0.182758,0.02066 -0.341859,0.03099 -0.477201,0.03099 -0.128641,0 -0.280939,-0.0069 -0.456895,-0.02066 -0.169254,-0.0069 -0.409579,-0.05165 -0.720877,-0.134294 C 53.041284,10.042738 52.767148,9.956686 52.530273,9.8671221 52.293298,9.7844795 52.019161,9.670846 51.707864,9.5262215 51.396466,9.3885183 51.139285,9.2645544 50.936221,9.1543298 50.733156,9.0510266 50.489479,8.9236537 50.20519,8.7721079 49.927602,8.6274834 49.683925,8.5035195 49.47416,8.4002162 49.264292,8.296913 49.061229,8.2073491 48.864968,8.1316278 48.309892,7.9043607 47.741313,7.7907272 47.159229,7.7907272 V 7.687424 h 0.131992 c 0.175956,0 0.324903,-0.061982 0.446741,-0.1859459 0.128539,-0.1239638 0.196262,-0.2789187 0.203064,-0.4648645 V 1.3136146 C 47.934226,1.1276688 47.866506,0.97271401 47.737962,0.84875013 47.616124,0.72478626 47.467177,0.66280432 47.291221,0.66280432 H 47.159229 V 0.55950109 h 3.086574 l -0.01016,0.10330323 H 50.13411 c -0.257282,0 -0.450192,0.10674323 -0.578732,0.32024001 -0.06092,0.0964129 -0.09138,0.20660647 -0.09138,0.33057027 V 7.305202 c 0,0.2272671 0.04396,0.385662 0.13199,0.4751949 0.08793,0.082643 0.186109,0.1412155 0.294444,0.1756155 2.545001,0.8470864 4.382731,1.2706297 5.513188,1.2706297 z m 1.89611,-8.87374737 3.320098,7.37585057 H 58.792262 L 56.680396,2.3466469 Z M 55.116803,7.0366136 c -0.05412,0.1377342 -0.06427,0.2548181 -0.03046,0.351231 0.03392,0.096413 0.09138,0.1721755 0.172605,0.2272671 0.08122,0.048212 0.162451,0.072312 0.243676,0.072312 h 0.09138 V 7.7907272 H 53.421218 V 7.687424 c 0,0 0.01696,0 0.05077,0 0.0271,0 0.04062,0 0.04062,0 0.155751,0 0.31475,-0.048212 0.477201,-0.1446246 0.169254,-0.1033032 0.308048,-0.2720284 0.416281,-0.5061858 z m 2.182938,-6.68371887 0.04062,1.26029927 -2.517995,6.1465422 h -0.741184 l 2.62968,-6.0535693 c 0.0203,-0.041321 0.05422,-0.1170735 0.101531,-0.2272671 0.05422,-0.1170735 0.108335,-0.2479277 0.162452,-0.3925523 0.06092,-0.14462446 0.115137,-0.28235866 0.162451,-0.41321286 0.04742,-0.1377342 0.07108,-0.24448775 0.07108,-0.32023991 z m 1.066086,4.97921557 v 0.4338736 h -2.98504 V 5.3321103 Z m 0.152299,1.7045033 h 1.77681 c 0.115137,0.2341574 0.25383,0.4028826 0.416281,0.5061858 0.162451,0.096413 0.321552,0.1446246 0.477201,0.1446246 0,0 0.0136,0 0.04062,0 0.02711,0 0.04062,0 0.04062,0 V 7.7907272 H 58.04093 V 7.687424 h 0.09138 c 0.135443,0 0.25383,-0.055092 0.355362,-0.1652852 0.101532,-0.1170736 0.111685,-0.2789187 0.03046,-0.4855252 z M 65.845793,0.55950109 V 5.1048432 c 0,0.4889652 0.07788,0.9125084 0.233523,1.2706297 0.162451,0.3581213 0.389274,0.6335897 0.680264,0.8264259 0.297896,0.1928361 0.649805,0.289249 1.055934,0.289249 0.41293,0 0.768292,-0.089533 1.066086,-0.2685884 0.304596,-0.1859458 0.53812,-0.4476439 0.700571,-0.7851045 0.162451,-0.3374607 0.243677,-0.736893 0.243677,-1.1983175 V 0.55950109 h 0.73103 V 5.1771555 c 0,0.5647277 -0.118386,1.0536929 -0.355362,1.4669058 -0.230071,0.413213 -0.565128,0.733453 -1.005167,0.9607201 -0.433136,0.2203458 -0.957752,0.3305703 -1.573746,0.3305703 -0.717426,0 -1.323267,-0.1102245 -1.817424,-0.3305703 C 65.311125,7.3775143 64.938807,7.0607143 64.688327,6.6543917 64.444651,6.2411787 64.322812,5.7522136 64.322812,5.1874858 V 0.55950109 Z m -1.492521,0 V 1.1793204 h -0.03046 c 0,-0.1515148 -0.05412,-0.27547865 -0.162451,-0.37189156 -0.101532,-0.0964129 -0.22672,-0.14462452 -0.375669,-0.14462452 0,0 -0.027,0 -0.08122,0 -0.05412,0 -0.08122,0 -0.08122,0 V 0.55950109 Z m 2.193092,0 v 0.10330323 c 0,0 -0.027,0 -0.08122,0 -0.05412,0 -0.08122,0 -0.08122,0 -0.148846,0 -0.277488,0.0482116 -0.385823,0.14462452 -0.101531,0.0964129 -0.152297,0.22037676 -0.152297,0.37189156 h -0.02032 V 0.55950109 Z m 3.309943,0 V 1.1793204 h -0.03046 c 0,-0.1515148 -0.05412,-0.27547865 -0.162451,-0.37189156 -0.101533,-0.0964129 -0.226722,-0.14462452 -0.375669,-0.14462452 0,0 -0.027,0 -0.08122,0 -0.05412,0 -0.08122,0 -0.08122,0 V 0.55950109 Z m 1.401142,0 v 0.10330323 c 0,0 -0.027,0 -0.08122,0 -0.05412,0 -0.08122,0 -0.08122,0 -0.148846,0 -0.277486,0.0482116 -0.385821,0.14462452 C 70.607656,0.90384175 70.55689,1.0278056 70.55689,1.1793204 h -0.0203 V 0.55950109 Z m 7.110185,0.030991 V 7.7907272 h -1.52298 V 0.59049206 Z m 2.487535,-0.0413213 V 0.98304433 H 74.35712 V 0.54917076 Z m 0,0.4028826 V 2.1710315 l -0.101533,-0.01033 V 2.0470676 c 0,-0.32368 -0.09473,-0.5784981 -0.284289,-0.7644439 C 80.286589,1.0897875 80.036212,0.98993466 79.71801,0.98304433 v -0.030991 z m 0,-0.58882831 V 0.66280432 L 79.616478,0.54917076 c 0.148948,0 0.304596,-0.0103303 0.467048,-0.030991 0.169253,-0.0206606 0.324902,-0.0447613 0.467047,-0.0723123 0.142144,-0.027551 0.243677,-0.0550916 0.304596,-0.0826424 z M 76.875113,7.0366136 V 7.7907272 H 76.062857 V 7.687424 c 0,0 0.0203,0 0.06092,0 0.04742,0 0.07107,0 0.07107,0 0.176056,0 0.324902,-0.061982 0.446741,-0.1859459 0.128641,-0.1308542 0.196362,-0.285809 0.203064,-0.4648645 z m 1.462062,0 h 0.03046 c 0.0068,0.1790555 0.07107,0.3340103 0.192911,0.4648645 0.128641,0.1239639 0.280939,0.1859459 0.456894,0.1859459 0,0 0.0203,0 0.06092,0 0.04742,0 0.07108,0 0.07108,0 v 0.1033032 h -0.812257 z m -2.85305,-6.08456024 v 0.030991 C 75.172827,0.98996565 74.922348,1.0897875 74.732788,1.2826237 74.55003,1.4685695 74.458652,1.7233876 74.458652,2.0470676 v 0.1136335 l -0.101532,0.01033 V 0.95205336 Z M 74.35712,0.36322505 c 0.06772,0.027551 0.169254,0.0550916 0.304596,0.0826426 0.142144,0.027551 0.297895,0.0516516 0.467047,0.0723123 0.169254,0.0206606 0.324902,0.030991 0.467047,0.030991 L 74.35712,0.6628045 Z"
     fill="url(#paint0_linear_358_24)"
     id="path4"
     style="fill:url(#paint0_linear_358_24);stroke-width:1.02414" />
  <path
     d="m 21.036797,12.720292 v 2.2265 c 0,0.2578 -0.001,0.4141 -0.0029,0.4688 -0.0118,0.2031 -0.0498,0.3672 -0.1143,0.4922 -0.1367,0.2617 -0.3828,0.3925 -0.7383,0.3925 -0.1894,0 -0.3398,-0.0332 -0.4511,-0.0996 -0.1133,-0.0664 -0.17,-0.1552 -0.17,-0.2666 0,-0.0605 0.0166,-0.1103 0.0498,-0.1494 0.0332,-0.039 0.0762,-0.0586 0.1289,-0.0586 0.0938,0 0.1573,0.0567 0.1905,0.1699 l 0.041,0.1407 c 0.041,0.1328 0.1279,0.1992 0.2607,0.1992 0.0684,0 0.1289,-0.0186 0.1817,-0.0557 0.0547,-0.0351 0.0957,-0.0869 0.123,-0.1553 0.0215,-0.0507 0.0371,-0.1298 0.0469,-0.2373 0.0098,-0.1074 0.0146,-0.2509 0.0146,-0.4306 v -1.8281 c 0,-0.2207 -0.0351,-0.378 -0.1054,-0.4717 -0.0684,-0.0957 -0.1846,-0.1436 -0.3487,-0.1436 v -0.0732 z m -0.2315,-1.0459 c -0.0761,0 -0.1396,-0.0245 -0.1904,-0.0733 -0.0508,-0.0488 -0.0762,-0.1103 -0.0762,-0.1846 0,-0.0722 0.0254,-0.1328 0.0762,-0.1816 0.0528,-0.0508 0.1162,-0.0762 0.1904,-0.0762 0.0743,0 0.1368,0.0254 0.1875,0.0762 0.0508,0.0488 0.0762,0.1094 0.0762,0.1816 0,0.0743 -0.0254,0.1358 -0.0762,0.1846 -0.0488,0.0488 -0.1113,0.0733 -0.1875,0.0733 z m 3.4647,2.3496 c 0,-0.3164 0.1172,-0.5987 0.3516,-0.8467 0.2851,-0.3008 0.6259,-0.4512 1.0224,-0.4512 0.3965,0 0.7363,0.1504 1.0196,0.4512 0.2343,0.25 0.3515,0.5332 0.3515,0.8496 0,0.3125 -0.1113,0.5908 -0.334,0.835 -0.2734,0.3007 -0.6191,0.4511 -1.0371,0.4511 -0.4179,0 -0.7646,-0.1504 -1.04,-0.4511 -0.1074,-0.1172 -0.1904,-0.2481 -0.249,-0.3926 -0.0567,-0.1445 -0.085,-0.293 -0.085,-0.4453 z m 0.5332,-0.0323 c 0,0.3399 0.0762,0.628 0.2285,0.8643 0.1719,0.2637 0.3819,0.3955 0.6299,0.3955 0.1055,0 0.208,-0.0293 0.3076,-0.0879 0.0996,-0.0586 0.1856,-0.1406 0.2578,-0.2461 0.0762,-0.1093 0.1377,-0.2461 0.1846,-0.4101 0.0469,-0.166 0.0703,-0.3262 0.0703,-0.4805 0,-0.1602 -0.0254,-0.3213 -0.0762,-0.4834 -0.0488,-0.1641 -0.1152,-0.3047 -0.1992,-0.4219 -0.1601,-0.2207 -0.3564,-0.331 -0.5888,-0.331 -0.2208,0 -0.4112,0.1162 -0.5713,0.3486 -0.1621,0.2324 -0.2432,0.5166 -0.2432,0.8525 z m 5.0848,-1.2216 h 1.1338 v 0.0615 c -0.0801,0.0117 -0.1377,0.0273 -0.1729,0.0469 -0.0762,0.0429 -0.1143,0.1093 -0.1143,0.1992 0,0.0781 0.0401,0.2178 0.1202,0.4189 l 0.4921,1.2569 0.4278,-1.0577 c 0.1055,-0.2636 0.1582,-0.4501 0.1582,-0.5595 0,-0.0879 -0.0244,-0.1572 -0.0733,-0.208 -0.0488,-0.0528 -0.1201,-0.085 -0.2138,-0.0967 v -0.0615 h 0.8379 v 0.0615 c -0.084,0.0234 -0.1465,0.0478 -0.1875,0.0732 -0.0391,0.0254 -0.0772,0.0655 -0.1143,0.1201 -0.0566,0.086 -0.1465,0.2784 -0.2695,0.5772 l -0.8496,2.0625 c -0.1016,0.2461 -0.1836,0.4062 -0.2461,0.4805 -0.1055,0.123 -0.2393,0.1845 -0.4014,0.1845 -0.1035,0 -0.1875,-0.0205 -0.2519,-0.0615 -0.0625,-0.039 -0.0938,-0.0908 -0.0938,-0.1553 0,-0.0507 0.0186,-0.0918 0.0557,-0.123 0.0371,-0.0293 0.0859,-0.044 0.1465,-0.044 0.0507,0 0.1093,0.0137 0.1757,0.0411 0.0645,0.0254 0.1055,0.041 0.1231,0.0468 0.0195,0.0059 0.042,0.0088 0.0674,0.0088 0.1211,0 0.2197,-0.0908 0.2959,-0.2724 l 0.0908,-0.2227 c 0.039,-0.0937 0.0586,-0.166 0.0586,-0.2168 0,-0.0723 -0.0371,-0.1982 -0.1114,-0.3779 l -0.6093,-1.4619 -0.0879,-0.211 c -0.0528,-0.125 -0.0938,-0.2138 -0.1231,-0.2666 -0.0293,-0.0527 -0.0586,-0.0908 -0.0879,-0.1142 -0.0488,-0.0371 -0.1074,-0.0596 -0.1757,-0.0674 z m 5.9138,0.8964 c -0.0078,0.0958 -0.0117,0.1651 -0.0117,0.2081 0,0.1699 0.0244,0.3359 0.0733,0.498 0.0507,0.1621 0.1191,0.2969 0.205,0.4043 0.0879,0.1094 0.1963,0.1953 0.3252,0.2578 0.1309,0.0625 0.2676,0.0938 0.4102,0.0938 0.1055,0 0.2051,-0.0176 0.2988,-0.0528 0.0957,-0.0351 0.1748,-0.084 0.2373,-0.1465 0.0703,-0.0683 0.1309,-0.1777 0.1817,-0.3281 l 0.0586,0.0205 c -0.0508,0.2285 -0.1602,0.4014 -0.3282,0.5186 -0.166,0.1152 -0.3877,0.1728 -0.665,0.1728 -0.2402,0 -0.4463,-0.0381 -0.6182,-0.1142 -0.1719,-0.0762 -0.3174,-0.1934 -0.4365,-0.3516 -0.166,-0.2207 -0.249,-0.4922 -0.249,-0.8144 0,-0.4395 0.1572,-0.7842 0.4717,-1.0342 0.2285,-0.1817 0.4892,-0.2725 0.7822,-0.2725 0.1562,0 0.3008,0.0283 0.4336,0.085 0.1328,0.0547 0.2451,0.1347 0.3369,0.2402 0.1426,0.1641 0.2139,0.3692 0.2139,0.6152 z m 1.2832,-0.1142 c -0.0136,-0.1953 -0.0498,-0.3457 -0.1084,-0.4512 -0.0527,-0.0957 -0.123,-0.1709 -0.2109,-0.2256 -0.0879,-0.0566 -0.1816,-0.0849 -0.2813,-0.0849 -0.1679,0 -0.3154,0.0722 -0.4423,0.2168 -0.125,0.1445 -0.1993,0.3261 -0.2227,0.5449 z m 3.5379,-2.3027 0.8408,-0.1055 v 3.2695 l 0.003,0.2227 c 0,0.1328 0.0078,0.2304 0.0234,0.2929 0.0156,0.0606 0.0459,0.1114 0.0908,0.1524 0.0547,0.0527 0.1553,0.0928 0.3018,0.1201 v 0.0586 h -1.292 v -0.0586 c 0.1172,-0.0156 0.2012,-0.0371 0.252,-0.0644 0.0507,-0.0293 0.0917,-0.0782 0.123,-0.1465 0.0215,-0.045 0.0361,-0.1123 0.0439,-0.2022 0.0098,-0.0918 0.0147,-0.2236 0.0147,-0.3955 v -2.2998 c 0,-0.1992 -0.0049,-0.3398 -0.0147,-0.4219 -0.0097,-0.082 -0.0312,-0.1484 -0.0644,-0.1992 -0.0332,-0.0547 -0.0733,-0.0937 -0.1201,-0.1172 -0.0469,-0.0234 -0.1143,-0.0381 -0.2022,-0.0439 z m 4.1531,0 0.8409,-0.1055 v 3.2695 l 0.0029,0.2227 c 0,0.1328 0.0078,0.2304 0.0234,0.2929 0.0157,0.0606 0.0459,0.1114 0.0909,0.1524 0.0546,0.0527 0.1552,0.0928 0.3017,0.1201 v 0.0586 h -1.292 v -0.0586 c 0.1172,-0.0156 0.2012,-0.0371 0.252,-0.0644 0.0508,-0.0293 0.0918,-0.0782 0.123,-0.1465 0.0215,-0.045 0.0362,-0.1123 0.044,-0.2022 0.0097,-0.0918 0.0146,-0.2236 0.0146,-0.3955 v -2.2998 c 0,-0.1992 -0.0049,-0.3398 -0.0146,-0.4219 -0.0098,-0.082 -0.0313,-0.1484 -0.0645,-0.1992 -0.0332,-0.0547 -0.0732,-0.0937 -0.1201,-0.1172 -0.0469,-0.0234 -0.1143,-0.0381 -0.2022,-0.0439 z m 4.7391,2.4169 c -0.0078,0.0958 -0.0117,0.1651 -0.0117,0.2081 0,0.1699 0.0244,0.3359 0.0732,0.498 0.0508,0.1621 0.1192,0.2969 0.2051,0.4043 0.0879,0.1094 0.1963,0.1953 0.3252,0.2578 0.1309,0.0625 0.2676,0.0938 0.4102,0.0938 0.1054,0 0.205,-0.0176 0.2988,-0.0528 0.0957,-0.0351 0.1748,-0.084 0.2373,-0.1465 0.0703,-0.0683 0.1309,-0.1777 0.1816,-0.3281 l 0.0586,0.0205 c -0.0507,0.2285 -0.1601,0.4014 -0.3281,0.5186 -0.166,0.1152 -0.3877,0.1728 -0.665,0.1728 -0.2403,0 -0.4463,-0.0381 -0.6182,-0.1142 -0.1719,-0.0762 -0.3174,-0.1934 -0.4365,-0.3516 -0.166,-0.2207 -0.249,-0.4922 -0.249,-0.8144 0,-0.4395 0.1572,-0.7842 0.4716,-1.0342 0.2286,-0.1817 0.4893,-0.2725 0.7823,-0.2725 0.1562,0 0.3007,0.0283 0.4336,0.085 0.1328,0.0547 0.2451,0.1347 0.3369,0.2402 0.1426,0.1641 0.2138,0.3692 0.2138,0.6152 z m 1.2832,-0.1142 c -0.0137,-0.1953 -0.0498,-0.3457 -0.1084,-0.4512 -0.0527,-0.0957 -0.123,-0.1709 -0.2109,-0.2256 -0.0879,-0.0566 -0.1817,-0.0849 -0.2813,-0.0849 -0.1679,0 -0.3154,0.0722 -0.4424,0.2168 -0.125,0.1445 -0.1992,0.3261 -0.2226,0.5449 z m 4.3406,-0.375 c 0.0704,-0.1231 0.1495,-0.2158 0.2373,-0.2783 0.1622,-0.1153 0.3467,-0.1729 0.5538,-0.1729 0.1269,0 0.2236,0.0283 0.29,0.085 0.0605,0.0508 0.0908,0.1133 0.0908,0.1875 0,0.0547 -0.0185,0.0996 -0.0556,0.1347 -0.0352,0.0352 -0.0811,0.0528 -0.1377,0.0528 -0.0664,0 -0.1241,-0.0274 -0.1729,-0.082 l -0.0908,-0.0997 c -0.0723,-0.0761 -0.1572,-0.1142 -0.2549,-0.1142 -0.1328,0 -0.2363,0.0859 -0.3105,0.2578 -0.0743,0.1719 -0.1114,0.4111 -0.1114,0.7178 v 0.5478 l 0.003,0.2227 c 0,0.1328 0.0078,0.2304 0.0234,0.2929 0.0156,0.0606 0.0459,0.1114 0.0908,0.1524 0.0547,0.0527 0.1553,0.0928 0.3018,0.1201 v 0.0586 h -1.292 v -0.0586 c 0.1172,-0.0156 0.2012,-0.0371 0.2519,-0.0644 0.0508,-0.0293 0.0918,-0.0782 0.1231,-0.1465 0.0215,-0.045 0.0361,-0.1123 0.0439,-0.2022 0.0098,-0.0918 0.0147,-0.2236 0.0147,-0.3955 v -0.7236 c 0,-0.2012 -0.0049,-0.3418 -0.0147,-0.4219 -0.0097,-0.082 -0.0312,-0.1484 -0.0644,-0.1992 -0.0332,-0.0547 -0.0733,-0.0938 -0.1201,-0.1172 -0.0469,-0.0254 -0.1143,-0.041 -0.2022,-0.0469 v -0.0586 l 0.7529,-0.1054 c 0.0332,0.1777 0.0498,0.33 0.0498,0.457 z m 3.8631,-0.4072 h 1.1338 v 0.0615 c -0.0801,0.0117 -0.1377,0.0273 -0.1728,0.0469 -0.0762,0.0429 -0.1143,0.1093 -0.1143,0.1992 0,0.0781 0.04,0.2178 0.1201,0.4189 l 0.4922,1.2569 0.4277,-1.0577 c 0.1055,-0.2636 0.1582,-0.4501 0.1582,-0.5595 0,-0.0879 -0.0244,-0.1572 -0.0732,-0.208 -0.0488,-0.0528 -0.1201,-0.085 -0.2139,-0.0967 v -0.0615 h 0.8379 v 0.0615 c -0.084,0.0234 -0.1465,0.0478 -0.1875,0.0732 -0.039,0.0254 -0.0771,0.0655 -0.1142,0.1201 -0.0567,0.086 -0.1465,0.2784 -0.2696,0.5772 l -0.8496,2.0625 c -0.1015,0.2461 -0.1836,0.4062 -0.2461,0.4805 -0.1054,0.123 -0.2392,0.1845 -0.4013,0.1845 -0.1035,0 -0.1875,-0.0205 -0.252,-0.0615 -0.0625,-0.039 -0.0937,-0.0908 -0.0937,-0.1553 0,-0.0507 0.0185,-0.0918 0.0556,-0.123 0.0371,-0.0293 0.086,-0.044 0.1465,-0.044 0.0508,0 0.1094,0.0137 0.1758,0.0411 0.0644,0.0254 0.1055,0.041 0.123,0.0468 0.0196,0.0059 0.042,0.0088 0.0674,0.0088 0.1211,0 0.2198,-0.0908 0.2959,-0.2724 l 0.0908,-0.2227 c 0.0391,-0.0937 0.0586,-0.166 0.0586,-0.2168 0,-0.0723 -0.0371,-0.1982 -0.1113,-0.3779 l -0.6094,-1.4619 -0.0879,-0.211 c -0.0527,-0.125 -0.0937,-0.2138 -0.123,-0.2666 -0.0293,-0.0527 -0.0586,-0.0908 -0.0879,-0.1142 -0.0488,-0.0371 -0.1074,-0.0596 -0.1758,-0.0674 z"
     fill="#734b10"
     id="path6" />
</svg>
